<svg xmlns="http://www.w3.org/2000/svg" width="189.82" height="35" viewBox="0 0 189.82 35"><rect class="svg__rect" x="0" y="0" width="91.89" height="35" fill="#000000"/><rect class="svg__rect" x="89.89" y="0" width="99.92999999999999" height="35" fill="#FF9000"/><path class="svg__text" d="M15.70 22L14.22 22L14.22 13.47L15.70 13.47L15.70 17.02L19.51 17.02L19.51 13.47L20.99 13.47L20.99 22L19.51 22L19.51 18.21L15.70 18.21L15.70 22ZM31.31 22L25.73 22L25.73 13.47L31.27 13.47L31.27 14.66L27.21 14.66L27.21 17.02L30.72 17.02L30.72 18.19L27.21 18.19L27.21 20.82L31.31 20.82L31.31 22ZM36.99 22L35.50 22L35.50 13.47L38.50 13.47Q39.98 13.47 40.78 14.13Q41.59 14.79 41.59 16.05L41.59 16.05Q41.59 16.90 41.17 17.48Q40.76 18.06 40.02 18.37L40.02 18.37L41.94 21.92L41.94 22L40.35 22L38.64 18.71L36.99 18.71L36.99 22ZM36.99 14.66L36.99 17.52L38.51 17.52Q39.26 17.52 39.68 17.15Q40.10 16.77 40.10 16.11L40.10 16.11Q40.10 15.43 39.71 15.05Q39.32 14.68 38.55 14.66L38.55 14.66L36.99 14.66ZM51.56 22L45.98 22L45.98 13.47L51.52 13.47L51.52 14.66L47.46 14.66L47.46 17.02L50.97 17.02L50.97 18.19L47.46 18.19L47.46 20.82L51.56 20.82L51.56 22ZM63.41 14.66L60.78 14.66L60.78 13.47L67.54 13.47L67.54 14.66L64.88 14.66L64.88 22L63.41 22L63.41 14.66ZM71.03 18.00L71.03 18.00L71.03 17.52Q71.03 16.28 71.47 15.32Q71.91 14.37 72.72 13.86Q73.53 13.35 74.57 13.35Q75.61 13.35 76.42 13.85Q77.22 14.35 77.66 15.29Q78.10 16.23 78.11 17.48L78.11 17.48L78.11 17.96Q78.11 19.21 77.67 20.16Q77.24 21.10 76.43 21.61Q75.63 22.12 74.58 22.12L74.58 22.12Q73.54 22.12 72.73 21.61Q71.92 21.10 71.48 20.17Q71.04 19.23 71.03 18.00ZM72.51 17.46L72.51 17.96Q72.51 19.36 73.06 20.13Q73.61 20.90 74.58 20.90L74.58 20.90Q75.56 20.90 76.10 20.15Q76.63 19.40 76.63 17.96L76.63 17.96L76.63 17.51Q76.63 16.09 76.09 15.34Q75.55 14.58 74.57 14.58L74.57 14.58Q73.61 14.58 73.07 15.33Q72.52 16.09 72.51 17.46L72.51 17.46Z" fill="#FFFFFF"/><path class="svg__text" d="M106.46 22L104.08 22L104.08 13.60L110.67 13.60L110.67 15.44L106.46 15.44L106.46 17.28L110.17 17.28L110.17 19.12L106.46 19.12L106.46 22ZM117.64 22L115.26 22L115.26 13.60L117.64 13.60L117.64 22ZM125.15 22L122.82 22L122.82 13.60L124.77 13.60L128.48 18.07L128.48 13.60L130.81 13.60L130.81 22L128.86 22L125.15 17.52L125.15 22ZM139.94 22L135.97 22L135.97 13.60L139.94 13.60Q141.33 13.60 142.39 14.12Q143.46 14.63 144.05 15.58Q144.64 16.53 144.64 17.80L144.64 17.80Q144.64 19.07 144.05 20.02Q143.46 20.97 142.39 21.48Q141.33 22 139.94 22L139.94 22ZM138.35 15.50L138.35 20.10L139.85 20.10Q140.93 20.10 141.58 19.49Q142.23 18.88 142.23 17.80L142.23 17.80Q142.23 16.72 141.58 16.11Q140.93 15.50 139.85 15.50L139.85 15.50L138.35 15.50ZM158.53 22L156.34 22L156.34 13.60L158.29 13.60L161.25 18.45L164.13 13.60L166.08 13.60L166.11 22L163.93 22L163.90 17.55L161.74 21.17L160.69 21.17L158.53 17.67L158.53 22ZM178.01 22L171.27 22L171.27 13.60L177.86 13.60L177.86 15.44L173.62 15.44L173.62 16.85L177.36 16.85L177.36 18.63L173.62 18.63L173.62 20.17L178.01 20.17L178.01 22Z" fill="#000000" x="102.89"/></svg>