<svg xmlns="http://www.w3.org/2000/svg" width="212.12" height="35" viewBox="0 0 212.12 35"><rect class="svg__rect" x="0" y="0" width="106.65" height="35" fill="#000000"/><rect class="svg__rect" x="104.65" y="0" width="107.47" height="35" fill="#6F0B4F"/><path class="svg__text" d="M15.70 22L14.22 22L14.22 13.47L17.48 13.47Q18.91 13.47 19.75 14.21Q20.59 14.96 20.59 16.18L20.59 16.18Q20.59 17.44 19.77 18.13Q18.95 18.83 17.46 18.83L17.46 18.83L15.70 18.83L15.70 22ZM15.70 14.66L15.70 17.64L17.48 17.64Q18.27 17.64 18.69 17.27Q19.10 16.90 19.10 16.19L19.10 16.19Q19.10 15.50 18.68 15.09Q18.26 14.68 17.52 14.66L17.52 14.66L15.70 14.66ZM24.61 18.00L24.61 18.00L24.61 17.52Q24.61 16.28 25.05 15.32Q25.49 14.37 26.30 13.86Q27.10 13.35 28.14 13.35Q29.19 13.35 29.99 13.85Q30.80 14.35 31.24 15.29Q31.68 16.23 31.68 17.48L31.68 17.48L31.68 17.96Q31.68 19.21 31.25 20.16Q30.82 21.10 30.01 21.61Q29.21 22.12 28.16 22.12L28.16 22.12Q27.12 22.12 26.31 21.61Q25.50 21.10 25.05 20.17Q24.61 19.23 24.61 18.00ZM26.09 17.46L26.09 17.96Q26.09 19.36 26.64 20.13Q27.18 20.90 28.16 20.90L28.16 20.90Q29.14 20.90 29.67 20.15Q30.20 19.40 30.20 17.96L30.20 17.96L30.20 17.51Q30.20 16.09 29.67 15.34Q29.13 14.58 28.14 14.58L28.14 14.58Q27.18 14.58 26.64 15.33Q26.10 16.09 26.09 17.46L26.09 17.46ZM37.53 22L35.56 13.47L37.03 13.47L38.36 19.88L39.99 13.47L41.23 13.47L42.84 19.89L44.15 13.47L45.62 13.47L43.65 22L42.24 22L40.61 15.77L38.96 22L37.53 22ZM55.27 22L49.70 22L49.70 13.47L55.23 13.47L55.23 14.66L51.18 14.66L51.18 17.02L54.68 17.02L54.68 18.19L51.18 18.19L51.18 20.82L55.27 20.82L55.27 22ZM60.95 22L59.47 22L59.47 13.47L62.47 13.47Q63.95 13.47 64.75 14.13Q65.55 14.79 65.55 16.05L65.55 16.05Q65.55 16.90 65.14 17.48Q64.72 18.06 63.99 18.37L63.99 18.37L65.90 21.92L65.90 22L64.31 22L62.60 18.71L60.95 18.71L60.95 22ZM60.95 14.66L60.95 17.52L62.48 17.52Q63.23 17.52 63.65 17.15Q64.07 16.77 64.07 16.11L64.07 16.11Q64.07 15.43 63.68 15.05Q63.29 14.68 62.52 14.66L62.52 14.66L60.95 14.66ZM79.03 22L75.92 22L75.92 13.47L78.85 13.47Q80.29 13.47 81.05 14.05Q81.81 14.63 81.81 15.78L81.81 15.78Q81.81 16.36 81.49 16.83Q81.17 17.30 80.56 17.56L80.56 17.56Q81.25 17.75 81.63 18.26Q82.01 18.78 82.01 19.51L82.01 19.51Q82.01 20.71 81.24 21.36Q80.47 22 79.03 22L79.03 22ZM77.40 18.15L77.40 20.82L79.05 20.82Q79.75 20.82 80.14 20.47Q80.53 20.13 80.53 19.51L80.53 19.51Q80.53 18.18 79.17 18.15L79.17 18.15L77.40 18.15ZM77.40 14.66L77.40 17.06L78.86 17.06Q79.55 17.06 79.94 16.75Q80.33 16.43 80.33 15.86L80.33 15.86Q80.33 15.23 79.97 14.95Q79.61 14.66 78.85 14.66L78.85 14.66L77.40 14.66ZM88.52 18.86L85.65 13.47L87.30 13.47L89.26 17.51L91.23 13.47L92.87 13.47L90.01 18.86L90.01 22L88.52 22L88.52 18.86Z" fill="#FFFFFF"/><path class="svg__text" d="M118.41 17.80L118.41 17.80Q118.41 16.54 119.01 15.54Q119.61 14.55 120.66 13.99Q121.71 13.43 123.03 13.43L123.03 13.43Q124.18 13.43 125.10 13.84Q126.03 14.25 126.64 15.02L126.64 15.02L125.13 16.39Q124.32 15.40 123.15 15.40L123.15 15.40Q122.46 15.40 121.93 15.70Q121.40 16 121.10 16.54Q120.81 17.09 120.81 17.80L120.81 17.80Q120.81 18.51 121.10 19.05Q121.40 19.60 121.93 19.90Q122.46 20.20 123.15 20.20L123.15 20.20Q124.32 20.20 125.13 19.22L125.13 19.22L126.64 20.58Q126.03 21.35 125.11 21.76Q124.18 22.17 123.03 22.17L123.03 22.17Q121.71 22.17 120.66 21.61Q119.61 21.05 119.01 20.05Q118.41 19.06 118.41 17.80ZM133.76 22L130.17 13.60L132.74 13.60L135.02 19.07L137.35 13.60L139.70 13.60L136.10 22L133.76 22ZM150.24 22L143.85 22L143.85 13.60L146.23 13.60L146.23 20.11L150.24 20.11L150.24 22ZM154.23 17.80L154.23 17.80Q154.23 16.55 154.83 15.55Q155.44 14.56 156.50 14.00Q157.56 13.43 158.89 13.43L158.89 13.43Q160.22 13.43 161.29 14.00Q162.35 14.56 162.96 15.55Q163.56 16.55 163.56 17.80L163.56 17.80Q163.56 19.05 162.96 20.04Q162.35 21.04 161.29 21.60Q160.23 22.17 158.89 22.17L158.89 22.17Q157.56 22.17 156.50 21.60Q155.44 21.04 154.83 20.04Q154.23 19.05 154.23 17.80ZM156.63 17.80L156.63 17.80Q156.63 18.51 156.93 19.05Q157.23 19.60 157.74 19.90Q158.26 20.20 158.89 20.20L158.89 20.20Q159.53 20.20 160.05 19.90Q160.56 19.60 160.86 19.05Q161.16 18.51 161.16 17.80L161.16 17.80Q161.16 17.09 160.86 16.54Q160.56 16 160.05 15.70Q159.53 15.40 158.89 15.40L158.89 15.40Q158.25 15.40 157.74 15.70Q157.23 16 156.93 16.54Q156.63 17.09 156.63 17.80ZM167.86 17.80L167.86 17.80Q167.86 16.54 168.46 15.54Q169.06 14.55 170.11 13.99Q171.16 13.43 172.48 13.43L172.48 13.43Q173.63 13.43 174.56 13.84Q175.48 14.25 176.10 15.02L176.10 15.02L174.58 16.39Q173.77 15.40 172.60 15.40L172.60 15.40Q171.92 15.40 171.38 15.70Q170.85 16 170.56 16.54Q170.26 17.09 170.26 17.80L170.26 17.80Q170.26 18.51 170.56 19.05Q170.85 19.60 171.38 19.90Q171.92 20.20 172.60 20.20L172.60 20.20Q173.77 20.20 174.58 19.22L174.58 19.22L176.10 20.58Q175.49 21.35 174.56 21.76Q173.63 22.17 172.48 22.17L172.48 22.17Q171.16 22.17 170.11 21.61Q169.06 21.05 168.46 20.05Q167.86 19.06 167.86 17.80ZM182.99 22L180.63 22L180.63 13.60L182.99 13.60L182.99 17.09L186.24 13.60L188.85 13.60L185.42 17.32L189.03 22L186.27 22L183.87 18.95L182.99 19.90L182.99 22ZM199.88 22L193.14 22L193.14 13.60L199.73 13.60L199.73 15.44L195.50 15.44L195.50 16.85L199.23 16.85L199.23 18.63L195.50 18.63L195.50 20.17L199.88 20.17L199.88 22Z" fill="#FFFFFF" x="117.65"/></svg>