<svg xmlns="http://www.w3.org/2000/svg" width="168.69" height="35" viewBox="0 0 168.69 35"><rect class="svg__rect" x="0" y="0" width="124.21" height="35" fill="#F7F7F7"/><rect class="svg__rect" x="122.21" y="0" width="46.47999999999999" height="35" fill="#5E579A"/><path class="svg__text" d="M16.25 14.66L13.61 14.66L13.61 13.47L20.38 13.47L20.38 14.66L17.72 14.66L17.72 22L16.25 22L16.25 14.66ZM25.62 22L24.14 22L24.14 13.47L25.62 13.47L25.62 17.02L29.43 17.02L29.43 13.47L30.91 13.47L30.91 22L29.43 22L29.43 18.21L25.62 18.21L25.62 22ZM41.23 22L35.65 22L35.65 13.47L41.19 13.47L41.19 14.66L37.13 14.66L37.13 17.02L40.64 17.02L40.64 18.19L37.13 18.19L37.13 20.82L41.23 20.82L41.23 22ZM54.51 22L51.40 22L51.40 13.47L54.32 13.47Q55.77 13.47 56.53 14.05Q57.28 14.63 57.28 15.78L57.28 15.78Q57.28 16.36 56.97 16.83Q56.65 17.30 56.04 17.56L56.04 17.56Q56.73 17.75 57.11 18.26Q57.49 18.78 57.49 19.51L57.49 19.51Q57.49 20.71 56.72 21.36Q55.95 22 54.51 22L54.51 22ZM52.88 18.15L52.88 20.82L54.53 20.82Q55.23 20.82 55.62 20.47Q56.01 20.13 56.01 19.51L56.01 19.51Q56.01 18.18 54.65 18.15L54.65 18.15L52.88 18.15ZM52.88 14.66L52.88 17.06L54.34 17.06Q55.03 17.06 55.42 16.75Q55.81 16.43 55.81 15.86L55.81 15.86Q55.81 15.23 55.45 14.95Q55.09 14.66 54.32 14.66L54.32 14.66L52.88 14.66ZM67.54 22L61.96 22L61.96 13.47L67.50 13.47L67.50 14.66L63.44 14.66L63.44 17.02L66.95 17.02L66.95 18.19L63.44 18.19L63.44 20.82L67.54 20.82L67.54 22ZM71.30 19.42L71.30 19.42L72.78 19.42Q72.78 20.15 73.26 20.55Q73.74 20.95 74.64 20.95L74.64 20.95Q75.41 20.95 75.80 20.63Q76.19 20.32 76.19 19.80L76.19 19.80Q76.19 19.24 75.80 18.94Q75.40 18.63 74.37 18.32Q73.34 18.01 72.73 17.63L72.73 17.63Q71.56 16.90 71.56 15.72L71.56 15.72Q71.56 14.69 72.40 14.02Q73.24 13.35 74.59 13.35L74.59 13.35Q75.48 13.35 76.17 13.68Q76.87 14.01 77.27 14.61Q77.67 15.22 77.67 15.96L77.67 15.96L76.19 15.96Q76.19 15.29 75.77 14.91Q75.35 14.54 74.57 14.54L74.57 14.54Q73.85 14.54 73.45 14.85Q73.05 15.16 73.05 15.71L73.05 15.71Q73.05 16.18 73.48 16.50Q73.91 16.81 74.91 17.10Q75.90 17.40 76.51 17.78Q77.11 18.16 77.39 18.65Q77.67 19.13 77.67 19.79L77.67 19.79Q77.67 20.86 76.86 21.49Q76.04 22.12 74.64 22.12L74.64 22.12Q73.71 22.12 72.94 21.77Q72.16 21.43 71.73 20.83Q71.30 20.22 71.30 19.42ZM83.64 14.66L81.01 14.66L81.01 13.47L87.78 13.47L87.78 14.66L85.12 14.66L85.12 22L83.64 22L83.64 14.66ZM99.07 22L97.60 22L97.60 13.47L99.07 13.47L99.07 22ZM103.45 19.42L103.45 19.42L104.93 19.42Q104.93 20.15 105.41 20.55Q105.89 20.95 106.79 20.95L106.79 20.95Q107.56 20.95 107.95 20.63Q108.34 20.32 108.34 19.80L108.34 19.80Q108.34 19.24 107.95 18.94Q107.55 18.63 106.52 18.32Q105.49 18.01 104.88 17.63L104.88 17.63Q103.71 16.90 103.71 15.72L103.71 15.72Q103.71 14.69 104.55 14.02Q105.39 13.35 106.74 13.35L106.74 13.35Q107.63 13.35 108.32 13.68Q109.02 14.01 109.42 14.61Q109.82 15.22 109.82 15.96L109.82 15.96L108.34 15.96Q108.34 15.29 107.92 14.91Q107.50 14.54 106.72 14.54L106.72 14.54Q106.00 14.54 105.60 14.85Q105.20 15.16 105.20 15.71L105.20 15.71Q105.20 16.18 105.63 16.50Q106.06 16.81 107.06 17.10Q108.06 17.40 108.66 17.78Q109.26 18.16 109.54 18.65Q109.82 19.13 109.82 19.79L109.82 19.79Q109.82 20.86 109.01 21.49Q108.19 22.12 106.79 22.12L106.79 22.12Q105.86 22.12 105.09 21.77Q104.31 21.43 103.88 20.83Q103.45 20.22 103.45 19.42Z" fill="#393939"/><path class="svg__text" d="M135.97 17.80L135.97 17.80Q135.97 16.54 136.57 15.54Q137.17 14.55 138.22 13.99Q139.27 13.43 140.59 13.43L140.59 13.43Q141.74 13.43 142.66 13.84Q143.59 14.25 144.20 15.02L144.20 15.02L142.69 16.39Q141.88 15.40 140.71 15.40L140.71 15.40Q140.02 15.40 139.49 15.70Q138.96 16 138.66 16.54Q138.37 17.09 138.37 17.80L138.37 17.80Q138.37 18.51 138.66 19.05Q138.96 19.60 139.49 19.90Q140.02 20.20 140.71 20.20L140.71 20.20Q141.88 20.20 142.69 19.22L142.69 19.22L144.20 20.58Q143.59 21.35 142.67 21.76Q141.74 22.17 140.59 22.17L140.59 22.17Q139.27 22.17 138.22 21.61Q137.17 21.05 136.57 20.05Q135.97 19.06 135.97 17.80ZM149.62 20.21L148.10 20.21L148.10 18.67L149.81 18.67L150.01 16.94L148.50 16.94L148.50 15.39L150.20 15.39L150.43 13.60L152.07 13.60L151.84 15.39L153.31 15.39L153.54 13.60L155.17 13.60L154.94 15.39L156.45 15.39L156.45 16.94L154.75 16.94L154.55 18.67L156.05 18.67L156.05 20.21L154.36 20.21L154.13 22L152.49 22L152.72 20.21L151.25 20.21L151.02 22L149.39 22L149.62 20.21ZM151.64 16.94L151.44 18.67L152.92 18.67L153.12 16.94L151.64 16.94Z" fill="#FFFFFF" x="135.20999999999998"/></svg>